<?xml version="1.0" encoding="UTF-8" standalone="no"?>
<svg width="793.7" xmlns="http://www.w3.org/2000/svg" height="1122.5">
 <g stroke-width="18.75" stroke="#000" fill-rule="evenodd">
  <g id="g15884" fill="#f5e86e">
   <path id="path15882" d="m299.43 850.82c0.95972 17.275-0.95969 28.791 2.8792 51.824 28.791 37.429 17.275 40.308 25.912 60.462 58.542 0.95966 117.08 1.9194 175.63 2.8791-1.9194-47.986-9.5971-61.422 11.516-109.41l-215.94-5.7582z"/>
   <path id="path15883" d="m411.72 963.11c-4.7986-31.67-6.718-28.791 23.033-54.704"/>
  </g>
  <path id="path12150" fill="#007fff" d="m125.03 589.79c130.3 146.58 115.4 24.924 149.26 269.55 116.72 5.4289 140-3.7424 256.72 1.6865 0-115.36 1.1926-21.506 1.1926-136.87-2.7144-74.648 55.647-133.01 101.79-203.59-134.37-80.077-236.16-127.58-370.53-150.65-61.076 61.076-77.362 158.8-138.44 219.87z"/>
  <path id="path14016" fill="#ffffd6" d="m561.95 489.24c19.191 24.575 70.93 36.356 85.182-2.3252 4.7985-11.516-2.618-23.033 2.1805-34.55 12.476-9.5971 20.881-13.087 33.357-22.684 25.623-9.5971 6.4568-37.517-16.781-24.72-23.499 11.516-26.639 12.854-41.994 24.37-12.113 2.9956 13.318-31.9-6.3096-37.329-11.146-3.0829-10.968 4.9042-29.621 13.782s-35.78 18.646-40.818 19.126c-8.6374 26.872 23.442 37.457 14.805 64.329z"/>
 </g>
 <g id="g10888">
  <path id="path6521" d="m533.83 365.03c-46.066 262-188.54 405.46-415.99-37.923" fill-rule="evenodd" stroke="#000" stroke-width="18.75" fill="#ffffd6"/>
  <g id="g6529" fill-rule="evenodd" fill="#cba21f" transform="matrix(1 0 0 1.0272 8.8818e-15 .26013)">
   <rect id="rect6520" height="187.14" width="155.47" y="155.22" x="57.583" stroke-width="125"/>
   <g id="g6522">
    <rect id="rect4656" height="262.38" width="480.82" y="97.252" x="129.56" stroke-width="125"/>
    <g id="g4030" stroke="#000" stroke-width="18.75">
     <path id="path3401" d="m43.187 310.69c-35.509-75.817 44.147-284.08 126.68-158.35"/>
     <path id="path4027" d="m125.26 110.09c93.558-114.08 556.22-175.75 503.85 57.659"/>
     <path id="path4028" d="m603.2 323.22c76.777 36.469 87.334-186.18-2.8791-149.72"/>
     <path id="path4029" d="m133.9 337.61c-15.355 56.623-131.48 6.718-69.099-57.583"/>
    </g>
   </g>
  </g>
  <g stroke-width="18.75" stroke="#000">
   <g id="g3402" transform="matrix(1.0678 0 0 1.0678 31.282 -34.743)">
    <g fill="#d4fefe">
     <path id="path911" d="m351.07 382.83c0-62.809-43.183-113.73-96.451-113.73s-96.451 50.917-96.451 113.73c0 62.809 43.183 113.73 96.451 113.73s96.451-50.917 96.451-113.73z"/>
     <path id="path912" d="m538.22 401.54c0-57.244-39.316-103.65-87.814-103.65s-87.814 46.405-87.814 103.65c0 57.244 39.316 103.65 87.814 103.65s87.814-46.405 87.814-103.65z"/>
    </g>
    <path id="path2779" fill="none" d="m160.68 367.17c-30.322 1.8814-95.697-35.334-99.056 27.215"/>
   </g>
   <g fill-rule="evenodd">
    <path id="path7159" fill="none" d="m431.87 534.12c-15.355 42.227-24.952 44.147-54.704 40.308"/>
    <path id="path9024" fill="#ffffd6" d="m204.42 408.88c0.003693-24.649-19.977-44.633-44.627-44.633-24.649 0-44.63 19.984-44.627 44.633-0.003677 24.649 19.977 44.633 44.627 44.633 24.649 0 44.63-19.984 44.627-44.633z"/>
   </g>
  </g>
 </g>
 <g stroke="#000" fill-rule="evenodd">
  <g stroke-width="18.75">
   <path id="path10907" fill="#ffffd6" d="m195.62 497.65c5.7583 47.506-34.55 74.858-64.78 71.978-26.872-5.2784-33.59-49.425-34.55-84.934-19.194-10.557-8.1575-6.718-27.352-17.275-19.674-15.835-6.2381-40.308 11.516-30.231 19.194 8.6374 9.5971 5.7583 30.231 15.835 22.073 11.996 21.114 21.114 31.67 31.67-38.868-64.78 30.231-48.945 40.308-21.594 13.916 15.835 14.876 18.714 12.956 34.55z"/>
   <path id="path13394" fill="none" d="m475.2 542.96c-57.004 130.3-61.076 319.75-61.076 319.75-14.93-230.73-72.612-137.88-103.83-274.96"/>
   <path id="path15259" d="m373.4 630.51l-6.1076 52.932 42.259 66.664 14.745-68.7-50.896-50.896z"/>
  </g>
  <path id="path17130" stroke-width="14.317" d="m288.48 954.89c51.298-29.679 93.806 16.847 127.51 3.2977 41.606-16.725 96-15.389 127.51 3.2977 21.985 0 19.786 13.191 19.786 32.977-0.73285 19.786-5.8626 28.58-26.382 28.58-82.809-1.4656-167.82 1.4658-250.63 0-24.916 0.73291-36.641-13.924-35.176-30.779 14.656-21.252 16.122-33.71 37.374-37.374z"/>
 </g>
</svg>
