<?xml version="1.0" encoding="UTF-8" standalone="no"?>
<svg
   xmlns:dc="http://purl.org/dc/elements/1.1/"
   xmlns:cc="http://creativecommons.org/ns#"
   xmlns:rdf="http://www.w3.org/1999/02/22-rdf-syntax-ns#"
   xmlns:svg="http://www.w3.org/2000/svg"
   xmlns="http://www.w3.org/2000/svg"
   xmlns:xlink="http://www.w3.org/1999/xlink"
   xmlns:sodipodi="http://sodipodi.sourceforge.net/DTD/sodipodi-0.dtd"
   xmlns:inkscape="http://www.inkscape.org/namespaces/inkscape"
   viewBox="0 0 1200 800"
   fill="#fff"
   id="svg3336"
   version="1.1"
   inkscape:version="0.91 r13725"
   sodipodi:docname="Flag_of_UNIDO-transparent.svg">
  <metadata
     id="metadata3361">
    <rdf:RDF>
      <cc:Work
         rdf:about="">
        <dc:format>image/svg+xml</dc:format>
        <dc:type
           rdf:resource="http://purl.org/dc/dcmitype/StillImage" />
      </cc:Work>
    </rdf:RDF>
  </metadata>
  <defs
     id="defs3359" />
  <sodipodi:namedview
     pagecolor="#ffffff"
     bordercolor="#666666"
     borderopacity="1"
     objecttolerance="10"
     gridtolerance="10"
     guidetolerance="10"
     inkscape:pageopacity="0"
     inkscape:pageshadow="2"
     inkscape:window-width="1440"
     inkscape:window-height="897"
     id="namedview3357"
     showgrid="false"
     inkscape:zoom="0.8725"
     inkscape:cx="600"
     inkscape:cy="400"
     inkscape:window-x="-8"
     inkscape:window-y="-8"
     inkscape:window-maximized="1"
     inkscape:current-layer="svg3336" />
  <g
     stroke="#fff"
     stroke-width="4"
     fill="none"
     id="g3340">
    <circle
       cy="364.8"
       cx="600"
       r="129"
       id="circle3342" />
    <circle
       cy="364.8"
       cx="600"
       r="98"
       id="circle3344" />
    <circle
       cy="364.8"
       cx="600"
       r="64.5"
       id="circle3346" />
    <path
       d="m484.9 249.7l230.2 230.2m0-230.2l-230.2 230.2m115.1-277.9v325.6m162.84-162.8a162.81 162.81 0 0 1 -162.81 162.8 162.81 162.81 0 0 1 -162.8 -162.8 162.81 162.81 0 0 1 162.8 -162.81 162.81 162.81 0 0 1 162.81 162.81z"
       id="path3348" />
  </g>
  <path
     id="a"
     d="m537.3 587c2.69 3.08 6.18 5.96 9.47 8.61 21.23-21.94 46.2-46.3 69.85-46.3 14.69 0 25.3 11.18 37.61 19.1 17.1 10.95 40.63 17.1 60.76 9.1 10.83-4.11 21.32-10.17 29.2-20-15.85 10.93-39.58 12.4-57.5 4.98-19.78-8.2-39.9-19.1-62.4-19.1-33.2 0-64.8 22.47-86.95 43.63m245.5-69c-22 25-57.87 16.98-87.2 23.2-4.09.87-7.93 2.23-12.31 1.55 3.49-2.21 8.12-2.46 12.15-3.98 22.78-8.58 26.34-32.97 38.8-49.75-15.92 10.59-29.1 25.1-44 38.7-10.37 9.48-23.28 13.54-36.67 16.26 3.22 1.18 7.43.9 10.89 1.76 24.1 5.97 50.73 15.39 76.3 6.94 16.52-5.45 33.71-18.36 42.1-34.73zm35.3-57.95c-13.72 31.1-48.2 33.5-71.1 52.6-4.36 3.62-8.68 6.96-13.47 9.19l-.25-.25c5.29-4.78 11-10.49 15.1-16.44 13.1-19 8.74-45.1 18.84-65.2-9.18 10.99-17.78 22.3-23.1 34.88-8.5 20.25-11.39 43.3-30.46 58.73 20.64-6.81 44.5-5.45 63-17.63 19.54-12.8 37.64-33 41.4-55.8m14.69-62.84c-1.98 27.37-31.1 41.99-45 64.5-2.97 4.81-6 9.76-10.33 13.64.67-2.91 3.07-5.5 4.39-8.35 4.46-9.65 6.47-20.82 5.36-32.3-1.35-13.98-7.18-26.95-4.94-41.66-11.98 25.85-8.11 58.2-15 86.1-1.53 6.18-5.3 11.59-7.62 17.45 11.77-8.95 27.2-16.9 40.1-27.1 12.49-9.85 23.33-21.38 28.97-36.4 4.06-10.82 5.12-23.72 4.12-35.9m-.82-50.4c-1.41-6.11-2.48-12.43-5.14-18 5 25.82-12.14 44.5-18 66.8-2.21 8.42-2.97 17.36-6.37 25.2-.32.17-.59-.16-.79-.41 8.47-23.77-3.95-45.74-16-64.5-3.18-4.93-4.71-10.66-6.2-16.46-1.31 10.76.98 23.2 2.97 34.3 2.56 14.3 7.45 27.69 11.33 41.49 2.56 8.62 1.88 18.34.57 27.37l1.23-.98c9-16.63 26.78-29.63 32.1-47.78 4.29-14.51 7.26-31.3 4.29-47.1m-9.5-27.77c0-19.54-7.61-35.47-19-50-.33-.17-.57-.5-.99-.42 12.56 19.1 1.13 43.2 2.74 64.9l1.66 22.24c-.25.16-.25.83-.83.57-.74-2.48-.97-5.12-1.4-7.68-3-17.93-18.77-30.41-32.1-43.1-3.16-3-5.47-6.54-6.96-10.34 1.11 8.93 3.6 18.1 7.61 26.2 10.28 20.81 30.1 37.61 33.7 61.3 1.73-22.67 15.61-39.51 15.61-63.6m-33.1-65.9c-6.32-7-13.4-12.46-21.82-14.62 16.37 11.25 15.48 31.37 20.49 48.2 1.83 6.15 4.52 11.91 5.96 18.26l-.41.33c-2.72-7.19-7.39-14.1-13.48-19.83-11.51-10.86-28.82-17.43-34.51-33.3.26 22.1 19.1 38.86 36.3 51.84 7.71 5.82 14.26 13.64 18.26 21.84-.67-6.1-.97-11.17-.43-17.1 1.76-19.29 2.91-40.91-10.31-55.6m-66.4-37.1c12.15 10.66 20.25 24.38 29.58 36.71 7.76 10.26 18.41 16.61 27.57 25.2-4.94-10.26-5.86-22-12.13-31.93-10.74-16.97-28.48-23.55-45-30" />
  <use
     xlink:href="#a"
     transform="matrix(-1 0 0 1 1200 0)"
     id="use3351" />
  <path
     d="m350.5 321.8h499.5l-.54 116h-499.5z"
     id="path3353"
     fill="#4b92db" />
  <path
     d="m629.8 211.1l-1.57 1-1.06-.67-.53.86 1.33.84.26.17.27-.17 1.83-1.18-.53-.85m7.6 4.08l-1.32 1.06-.85-.86-.7.72 1.16 1.18.32.32.34-.28 1.67-1.36-.62-.78m-11.47 2.9c-.84-.08-1.92.27-2 .7-.17.67-1.16.84-1.16.84l-3.82.34c-.34 1-2.33 1.68-2.5 1-.36-1.48-2.49 1.85-.33 2.53s4.32 0 4.32 0l.5-1 8.31.17c.67-.68 1-1.69 1-1.69s1.99-.68 2.82-.34.17-2.36-.66-2c-.83.33-2.49.17-2.49.17h-3c-.06-.45-.47-.65-.97-.7m-14.83 3.4l-2.16.84-2.32 1.52-2.5.34-1.33 1.52 5.32.5 1 1.69 3.83.34 2.49 2.53c2.16.67 2.66-.34 1.33-1.52l-2.17-2.19v-1.86l-.66-.68-.67-2.36-2.16-.67m66.1 20.37c-1.35-.02-3.32.9-3.12 1.9.17.85.83 1.69 2.16 2.03l2.5.84s3.11 3.67 2.99 1.85c-.33-5.06-2.66-5.23-3.49-6.24-.21-.25-.59-.37-1.04-.38m-77.2.94c-.19.02-.32.2-.36.62-.17 1.69-1.17 1.69-1 2.87s.67 2.95 1.33 3.16c2.56.81 3.49.21 3.66-.46.16-.68.33-.85 1.33-1.02.99-.16-.17-2.19-1.17-2-.99.17-1.99-.34-2.16-1.18-.12-.63-1.09-2.03-1.63-1.97m25.1 1.09l-.67 1.52.91.41.67-1.52-.91-.41m43.84 1.55l-.5.85-3.16.17-.16 1c-1.66.84-8.31.17-8.48.67-.49 1.48-.66 3.54-1.5 3.54-.83 0-.5 2.2-.5 2.2s2.17 0 2.83.17c.67.16.67 1.85.67 1.85 2.49-.17 3.49 3.21 3.16 4.05-.34.84.99.84.99.84s0 2.7-.33 3.38c-.33.67 2.16 1.18 2.83 2.19.66 1-.34 4.39-.84 4.56-.49.17 1.33.67 1.17 1.51-.17.85.5 0 .66 1.36.17 1.34.5 4.21.5 4.21l2.33.17c.33-2.19 4.62-2.28 5.32-2 2.82 1 4.99 5.4 4.99 6.41s-1.84 1.18-1.84 1.18l.34 4.89c2.83.84 5.15 4.89 4.82 5.57-.33.67 1.99.51 1.99.51.34-3.04 3.16-2.03 3.33-1.02.17 1.02.66 3.21.66 3.21l.83 1.51 1.17 1.19 1.83-.17.5 1 2.16.34s1.83 2 1.99 2.53c.17.5 2.66.34 3.33.5.66.17 1.66.68 1.82 1.52.17.85 1.17 2.2 1.17 2.2s1.99.5 2.16 1.18c.17.67 1 2.19 1 2.19l1.66 1.35.16 1.52 1.83.17.5 2 2.99-.17 1.67-1.18c2.16-1.18 3.65-2.7 3.82-3.37.17-.68.5-3.21 2.16-2.7s.5-3.71.5-3.71-2.32-1.69-2.16-2.53c.17-.85-2.33-2.53-2.16-3.21.16-.68-2.16-2-2-2.7.17-.67-1.16-2.53-1.16-2.53l-2.49-2.36-.34-1.52-1.99-.17-3.99-4.89.16-1.35-1.16-.17v-1.85l-1.16-.68-1.83-.17-3.66-4.05-.33-1.85h-1.83l.33-3.55c1.17-1.52.5-4.38.5-4.38s-2.33 1.18-3.49.67c-1.16-.5.5-1.69.5-1.69v-1.35l-1-1s-2.82.34-2.99-.16c-.17-.51-.66-2.7-.66-2.7l-.17-2.87-1.16-.51-.17-1-1.83.17v-2.03l-1-.33-.99-.51-.17-2.03-3.65-.16-1.17-1.69-1.33-2.03-4.15-.33-1-1-1.66-.34-1.17-.51m-40.74.11c-.13-.11-1.02 1.25-1.69 1.56.81.42 1.88 1.03 1.88 1.03 1.32 0 2.16 1.02 2.16 1.52 0 .51 1.82.34 1.82.34l.17-1.18-1.33-1.69-1.16-.84s-1.83-.17-1.83-.68c0-.03 0-.05-.02-.06m-1.69 1.56c-.75-.39-1.29-.62-.45.02.12.1.28.06.45-.02m-5.55-.49l-.1 1 1.42.15 1.04 1.64.83-.54-1.15-1.85-.14-.21-.24-.02-1.66-.18m-38.43 4.23c-.91.03-1.74.2-1.68.5.17.84 1.49 1.85 1.49 1.85s2.5.18 2.66.68c.17.51 1.84.67 2 .17.17-.51.83-1.52-.66-1.52-1.5 0-1.17-.84-1.67-1.35-.25-.25-1.23-.36-2.14-.33m42.2 1.68v1.52l1.83.17-.49-1.36-1.34-.33m8.12 7.88c-.18.02-.31.09-.31.21 0 .51.67.51 1 1.52s.16 2.7 1.66 3.04 1.83.67 2 1.35c.16.67 1.99.84 1.99.84l1.33.68 3.99 3.37v-1.35s-.17-1.35-1-1.35-2.32-1-1.99-1.68c.33-.68-2.83-1.35-2.83-1.35s-2.82-2.7-1.83-2.37c1 .34.5-1.18.5-1.18s-1.99.34-2.49.17-.34-1.69-.34-1.69-1.12-.28-1.68-.21m-91.4 1.22l-.71.72 1 1 .71-.71-1-1.02m111 7.39c-.23.02-.42.13-.5.38-.34 1-1 1.69 0 2.19.99.51.82-.84 1.99.34 1.16 1.18 3.33 2.7 2.49 3.71-.83 1-1.83 1.35-1.83 1.35l1.17 1.35h1.83l.33 2.87s1.99 1 2.49 2.19.5 1.86 0 2.53c-.5.68-1.49 1.86-1.33 3.04.17 1.18 1.5 1.68 1.5 1.68l1.33.17 1 .51v2.2c1.33-.34 3.49 1.51 3.32 2.69-.16 1.18.33.51 1.99 1.69 1.67 1.18 1.17 1.35 2.33 2.19 1.17.84 2.17.34 2.66-1.18l1.17-3.71c-1.66-.34-1.34-2.19-1.34-2.19-.16-1.52-2.49-3.21-3.32-2.7-.83.5-.5-3.55-.5-3.55s1.5-1 2.16-.5c.67.5-5.65-8.44-6.98-7.59-1.33.84-4.32-.85-4.15-2.37.16-1.51-5.99-6.58-5.99-6.58s-1.12-.75-1.82-.71m-3.33 3.75s-.17 1.35-1.33.85c-1.17-.51-.5-.34-1.5-.51s-.66 2.19-.5 2.87c0 0-.66 2.36-.83 3.37-.17 1.02 2 1 2.66.85.66-.17 1.83-2.37 1.5-3.55-.34-1.18 1.33-1.68 2.16-.34l1.66-.16.33-1.52-2.32-1.86h-1.83m-77.5 20.36l-.64.78 1 .84.63-.78-.99-.84m-3.81.73l.17 1.86h2.49c1 0-.83-1.18-.83-1.18s-1.99.16-1.83-.68m110.5.3l-.99.11.16 1.52 1-.11-.17-1.52m-1.34 4.43l-2.16 1.35-2.16 2.87c0 2.19 1.16 1.18 2.16 1.18 1 0-.33 3.88 2.33 3.54s.17 1.18 2.16 1.35 1.49-1.52 2.16-2.7.33-1.85-.83-2.19c-1.17-.34-1.17-.34-1.5-1.69s-1.66-1.69-1.66-1.69l-.5-2m8.33 2c-.23.02-.35.19-.35.53 0 .68.83 1 .5 1.86-.33.84.33 1.52 1 1.52.66 0 1.16.33 1.83.67.66.34 1.16.84 1.66 1.52l1.66-.51s.17-1.68-.5-1.18c-.66.51-1.16-1.18-1.83-1-.66.17-.99-.67-1.66-1.52-.66-.84-.5-1-1.33-1.52-.41-.25-.75-.38-.98-.36m4.97 7.44l-1.99.17c.5.67 1.5 1.18 1.5 1.86 0 .67-.34 1.18.66 1.35 1 .16 1.66-.17 2 .67.33.84.33 2.19.16 2.87-.16.67.17 1.68 1 1.68s1 .17 1 .68.99-1.86.99-1.86c-.83-.67-1.49-2.19-1.49-2.19s-.83-2.36-.83-2.7-1.17-.68-1.66-.84c-.5-.17-1.34-1.69-1.34-1.69m-15.84.67l-1.67.17.1 1 1.66-.16-.09-1m1.05 1.19v.84h1v-.84h-1m11.47.17s-1.83.34-1.66 1.35c.16 1.02-2.66 1.02-3.99 1.69l1.33 1.85.5 1.69 3.99-.17s-1.17-.84.66-1.34c.88-.25 1.21-.29 1.32-.28l-.15-1.75-1.5-1-.5-2.03m2.15 4.79v.11s.12-.09 0-.11m-14.96-3.27s-.99 1.35-2.99.67c0 0-.33 3.21-1.32 3.88h-2.33s.5.85.99 1.35c.5.51 1.67 1.52.5 2.2-1.16.67.17.5.17.5s-.04.8-.24 1.58h1.66c-.55-.66.96-.9 1.24-.9.33 0 1.82-1.18 1.16-2.03-.66-.84 0-2.36 0-1.69 0 .68 1.83 1.02 2.17.51.33-.5 0-2-.84-2.53-.83-.51 1.5-.84.84-1.69-.67-.84-1-1.85-1-1.85m3.33 5.06v1.18h1v-1.18h-1m2.24.59l-.5 1.02.89.45.5-1-.89-.46m5.65.24c-1.2.08-1.9 1.36-1.9 1.36l-2.66.34v2.59h11.25l-.78-1.58h-2.37c-.04.03-.12 0-.12 0h.12c.08-.06-.06-.38-1.62-1.86-.73-.68-1.37-.89-1.92-.85m-47.2.39c-.27-.03-.46.09-.4.47.16 1-1.16 1.51-1.5 1.18-.33-.34-1.33 1-1.33 1 0 .43-.23.98.31 1.24h1.89c.41-.06.8-.09 1.08 0h12.88c-.74-.87-1.59-1.6-2.03-1.24-.83.68-1 0-2.49.51-1.5.5-4.66.17-4.82-.51-.17-.68-2.5-1-2.5-1.69 0-.42-.64-.91-1.09-.97m57.71.74c-.37.12.34 1.97-.09 2.26-.31.21-.56.55-.82.9h2.44c0-.45-.02-.85-.13-1.07-.33-.67-.33-1.51-1.16-2-.11-.07-.18-.08-.24-.07m-230.5 119.2l1.04 2.71.67 1.52 1.33 1.85 1.82 1.69.67-1.18-1.17-2.53-1.16-.85-.84-2.36-1.8-.85h-.56m16.1 0c.61.37 1.04.52 1.04.52l2.33-.17c0-.14 0-.25.03-.35h-3.4m4.65 0c.54.48 1.05 1.23 1.05 1.7 0 1 4.49 4.89 4.49 4.89l4.48 1 4.16 3.38 3.16-.34h1.33c.83-2.87 4.82.17 5.15 1.18.34 1 3 2.7 3.33 1.86.33-.85 2.16-.34 2.49 2.19s1.49 2 1.49 2l9.48-.16 3.33-2.87 8.48-.17c4.32-.17 1.66-6.08.83-6.08-1.5-1.18.5-6.07.5-6.07l-2.73-2.54h-51m91.7 0l-.07.69-.99.67v1.52l-1.17.34v.84l-1.66.17 1 2.53 1.33.68c2.33.33 1.33 3.2 1.33 3.2l1.33.17.67 1.85 1.32 2.7c.5 2.03 2 1.52 2.67 1.35.66-.16 1.32 2.03 1.32 2.03l6.65.17s-.33.67.83 1c1.17.34 8.81.68 9.15.17-.34-1.52 4.15-1.86 5.98-.51s4.32.51 4.32.51l2.5 3.04 1.66 3.71 2.83.84 1.99.51.67 2.86 1.49.17.5 1.86c1.83 1.35-.5 4.22-.5 4.22v3.71l1.33.67-.17 1.36 2.17 2.19 2.49.17 6.32 6.74 4.98 1.52.83 2.7 1.33-.17 1-.84 3.99-.17 2-1.86 2.16-.33 18.45-15.69-1.67-1v-3.71c3-2.2 3.16-6.08.34-6.42-2.15-.25-1.16-2.53.83-2.87l1.16-.5v-1.52l3.82-3.54v-2.7l-8.3-6.92c-2.76-1-1.37-5.85.55-8.11h-88.8m107.9.6c-.05 0-.08.04-.1.09-.33.67-2.49.16-2.49.84 0 .67-1.33 4.05-.67 5.23.67 1.18-.5 1.18-.66 2.36-.17 1.18-1.83 3.21-1.5 4.22l1.5.67.16 2.87c2 2.03 8.48.34 8.48-.17 0-.5-.33-6.24-.33-6.24l-.84-.84-.16-4.22c.62-2.06-2.7-5-3.39-4.81m-8.55 5.57c-.24.03-.47.17-.53.42-.31 1.28-1.49 2-2.16 1.52-.67-.51.83.84 1.16 1.52.34.67 1.33.67 1.67 0 .33-.68.16-2.2.5-2.87.2-.42-.24-.65-.64-.59m-101.7 22.64l-1 .84-.49.42.52.38 1.17.84.58-.81-.65-.47.51-.42-.64-.78m11.85 12.1l-.45.91 1.04.52-.34.35.71.72.83-.85.49-.49-.62-.32-1.66-.84m-84.2 8.55l1.34 2.03.16 1.52 1.66.5.67 1 1.16-.67-.83-2.2-2.16-1.85-2-.34m257.5-107.8c-.04-15.59 5.06-32.44 21.2-32.3 17.68.2 22.1 16.67 22.1 32.3 0 15.59-4.44 33.3-22.1 33.3-17.23 0-21.2-18.69-21.2-33.3m21.2 55.4c34.3.18 51.91-24.99 51.91-55.4 0-30.45-18.74-54.72-51.91-54.72s-51.92 24.27-51.92 54.72c0 30.44 18.75 55.3 51.92 55.4m-125.5-85.2h8.99c18.67 0 28.96 10 28.96 29.1 0 21.1-8.24 29.2-28.96 29.61h-8.99zm-29.8 82.3h45.3c31.94 0 51.75-18.54 51.75-53 0-32.55-19.52-51.4-51.75-51.4h-45.2v104.4m-43.98-104.4h29.62v103.9h-29.62zm-108.9-.18h40.77l28.82 67-.18-66.5 25.43-.18v103.5h-38.2l-28.84-64.8v64.6h-27.82v-103.7m-14.16 61.1c0 30.46-15.1 45.61-46.98 45.61-31.87 0-46.61-15.1-46.61-45.61v-60.95h29.1v62.6c0 13.54 4.48 21.35 17.9 21.35 13.43 0 18.26-7.82 18.26-21.35v-62.75h28.36v61.1"
     id="path3355" />
</svg>
