<?xml version="1.0" encoding="iso-8859-1"?>
<!-- Generator: Adobe Illustrator 18.0.0, SVG Export Plug-In . SVG Version: 6.00 Build 0)  -->
<!DOCTYPE svg PUBLIC "-//W3C//DTD SVG 1.1//EN" "http://www.w3.org/Graphics/SVG/1.1/DTD/svg11.dtd">
<svg version="1.1" id="Capa_1" xmlns="http://www.w3.org/2000/svg" xmlns:xlink="http://www.w3.org/1999/xlink" x="0px" y="0px"
	 viewBox="0 0 174.493 174.493" style="enable-background:new 0 0 174.493 174.493;" xml:space="preserve">
<g>
	<path d="M87.247,0C39.139,0,0,39.139,0,87.247s39.139,87.247,87.247,87.247s87.247-39.139,87.247-87.247S135.354,0,87.247,0z
		 M74.008,16.237c0.815,0.267,1.618,0.556,2.419,0.849c-7,4.743-13.317,10.52-18.655,17.176
		c-4.972,6.199-9.002,13.068-12.035,20.347H22.825C32.845,34.911,51.624,20.401,74.008,16.237z M15,87.247
		c0-7.906,1.295-15.512,3.653-22.638h23.629c-2.036,7.337-3.111,14.953-3.111,22.638s1.074,15.301,3.111,22.638H18.653
		C16.295,102.759,15,95.153,15,87.247z M74.007,158.256c-22.384-4.165-41.163-18.674-51.183-38.371h22.913
		c3.034,7.279,7.064,14.148,12.036,20.348c5.338,6.655,11.654,12.433,18.653,17.175C75.626,157.7,74.823,157.989,74.007,158.256z
		 M82.247,149.381c-11.061-7.386-19.899-17.581-25.645-29.496h25.645V149.381z M82.247,109.885H52.639
		c-2.254-7.166-3.468-14.774-3.468-22.638s1.214-15.472,3.468-22.638h29.608V109.885z M82.247,54.608H56.601
		c5.746-11.915,14.584-22.109,25.645-29.496V54.608z M100.485,16.237c22.384,4.164,41.163,18.674,51.183,38.371h-22.913
		c-3.034-7.279-7.064-14.148-12.036-20.348c-5.338-6.655-11.655-12.433-18.654-17.175C98.867,16.793,99.67,16.504,100.485,16.237z
		 M92.247,25.113c11.061,7.386,19.899,17.581,25.645,29.496H92.247V25.113z M92.247,64.608h29.608
		c2.254,7.166,3.468,14.774,3.468,22.638s-1.214,15.472-3.468,22.638H92.247V64.608z M92.247,119.885h25.645
		c-5.746,11.914-14.584,22.109-25.645,29.495V119.885z M100.485,158.256c-0.815-0.267-1.619-0.556-2.42-0.849
		c7-4.743,13.317-10.52,18.655-17.177c4.972-6.199,9.002-13.068,12.035-20.346h22.913
		C141.648,139.583,122.869,154.092,100.485,158.256z M132.212,109.885c2.036-7.337,3.111-14.953,3.111-22.638
		c0-7.685-1.074-15.301-3.111-22.638h23.629c2.358,7.126,3.653,14.732,3.653,22.638s-1.295,15.512-3.653,22.638H132.212z"/>
</g>
<g>
</g>
<g>
</g>
<g>
</g>
<g>
</g>
<g>
</g>
<g>
</g>
<g>
</g>
<g>
</g>
<g>
</g>
<g>
</g>
<g>
</g>
<g>
</g>
<g>
</g>
<g>
</g>
<g>
</g>
</svg>
